# xmcd CD database file
#
# Track frame offsets:
#	150
#	11854
#	32906
#	46285
#	75019
#	99834
#	124083
#	141567
#	173376
#	204398
#	223241
#	239971
#	250672
#	259497
#	272490
#	280805
#	294509
#	316106
#
# Disc length: 4531 seconds
#
# Revision: 2
# Processed by: cddbd v1.5.1PL0 Copyright (c) Steve Scherf et al.
# Submitted via: CDex 1.51
#
DISCID=0511b112
DTITLE=Marron - ドラマＣＤ　お姉ちゃんの３乗
DYEAR=2004
DGENRE=Seiyu
TTITLE0=プロローグ 分裂 de おねえちゃん
TTITLE1=主題歌：きゅーぶ de おねえちゃん
TTITLE2=落とし物 de おねえちゃん
TTITLE3=朝食はおじや de おねえちゃん
TTITLE4=回想 de おねえちゃん
TTITLE5=鎌倉姉妹 de おねえちゃん
TTITLE6=時速160キロ de おねえちゃん
TTITLE7=粘土細工 de おねえちゃん
TTITLE8=トーテムポール de おねえちゃん
TTITLE9=81％ de おねえちゃん
TTITLE10=あの頃に戻りたい de おねえちゃん
TTITLE11=ドリーム de おねえちゃん
TTITLE12=好き好き de おねえちゃん
TTITLE13=あいびき de おねえちゃん
TTITLE14=回転寿司 de おねえちゃん
TTITLE15=4姉妹会議 de おねえちゃん
TTITLE16=告白 de おねえちゃん
TTITLE17=きゅっきゅ de おねえちゃん
EXTD=YEAR: 2004
EXTT0=
EXTT1=
EXTT2=
EXTT3=
EXTT4=
EXTT5=
EXTT6=
EXTT7=
EXTT8=
EXTT9=
EXTT10=
EXTT11=
EXTT12=
EXTT13=
EXTT14=
EXTT15=
EXTT16=
EXTT17=
PLAYORDER=
